<svg width="146" height="55" viewBox="0 0 146 55" fill="none" xmlns="http://www.w3.org/2000/svg">
<path d="M19.4062 12.8438C19.4792 13.4688 19.526 13.9896 19.5469 14.4062C19.5781 14.8125 19.5938 15.4896 19.5938 16.4375C19.5938 17.25 19.5208 18.5469 19.375 20.3281C19.2292 22.1094 19.0469 23.8438 18.8281 25.5312C18.6094 27.2083 18.4062 28.375 18.2188 29.0312C18.1146 29.4062 17.6771 29.8385 16.9062 30.3281C16.1354 30.8177 15.2552 31.2552 14.2656 31.6406C13.2865 32.026 12.4635 32.2552 11.7969 32.3281C11.0365 31.9115 10.3333 31.3698 9.6875 30.7031C9.04167 30.0365 8.59375 29.4271 8.34375 28.875C7.77083 29.8542 7.1875 30.6615 6.59375 31.2969C6 31.9219 5.30208 32.2604 4.5 32.3125C4.07292 32.1042 3.61979 31.7135 3.14062 31.1406C2.66146 30.5677 2.25 29.9323 1.90625 29.2344C1.5625 28.5365 1.36979 27.901 1.32812 27.3281L2.71875 25.3906C3.11458 25.2448 3.61979 25.1719 4.23438 25.1719H4.75C4.41667 23.2135 4.15625 21.4375 3.96875 19.8438C3.79167 18.2396 3.61979 16.4635 3.45312 14.5156L3.32812 13.0938L0.46875 12.8438C0.552083 11.6875 0.739583 10.6823 1.03125 9.82812C1.33333 8.97396 1.84896 8.29688 2.57812 7.79688L13.7031 8.73438C14.6823 9.19271 15.6979 9.79688 16.75 10.5469C17.8125 11.2865 18.6979 12.0521 19.4062 12.8438ZM13.3594 22.8438C13.3594 19.0625 13.2708 16.2344 13.0938 14.3594L9.3125 13.5625L8.75 25.7969L9.01562 25.8438L13.25 27.125C13.3229 25.6458 13.3594 24.2188 13.3594 22.8438ZM28.2188 27.5625C28.5312 27.5 28.9167 27.3594 29.375 27.1406C29.8438 26.9219 30.4948 26.599 31.3281 26.1719C31.974 25.8281 32.6354 25.4896 33.3125 25.1562L34.6406 27.3281C34.1823 27.9427 33.4844 28.6458 32.5469 29.4375C31.6198 30.2188 30.6198 30.8958 29.5469 31.4688C28.4844 32.0312 27.5208 32.3125 26.6562 32.3125C26.3854 32.3125 26.1198 32.2396 25.8594 32.0938C25.599 31.9583 25.3125 31.7292 25 31.4062C24.7292 31.1354 24.526 30.9427 24.3906 30.8281C24.1719 30.6302 23.9635 30.4583 23.7656 30.3125C23.5781 30.1562 23.4583 30.0573 23.4062 30.0156C23.0833 29.724 22.8594 29.4583 22.7344 29.2188C22.6198 28.9688 22.5625 28.7031 22.5625 28.4219C22.5625 28.2344 22.5781 28.026 22.6094 27.7969C22.651 27.401 22.6719 27.0417 22.6719 26.7188C22.6719 25.2604 22.5677 23.6979 22.3594 22.0312C22.1615 20.3646 21.9531 19.1667 21.7344 18.4375C21.6094 18.0104 21.5469 17.7292 21.5469 17.5938C21.5469 17.1771 21.8542 16.6771 22.4688 16.0938C23.0938 15.5104 23.6979 15.0365 24.2812 14.6719C24.8542 14.3177 25.5365 13.9844 26.3281 13.6719C27.1198 13.349 27.776 13.1875 28.2969 13.1875C28.6615 13.2083 29.0677 13.3646 29.5156 13.6562C30.5156 14.3333 31.2969 14.8125 31.8594 15.0938C32.4323 15.3646 33.1302 15.6458 33.9531 15.9375L34.3906 16.0938C34.5156 16.1458 34.6042 16.1979 34.6562 16.25C34.7083 16.3021 34.7552 16.401 34.7969 16.5469C34.849 16.6823 34.901 16.9062 34.9531 17.2188C35.0156 17.5938 35.0469 17.9948 35.0469 18.4219C35.0469 19.2552 34.9375 19.875 34.7188 20.2812C34.625 20.4479 34.1771 20.9792 33.375 21.875C32.5729 22.7604 31.651 23.7396 30.6094 24.8125C29.5677 25.875 28.6198 26.7917 27.7656 27.5625H28.2188ZM30.8906 19.9062C30.3281 19.7812 29.3177 19.4844 27.8594 19.0156C27.8594 19.5885 27.8229 20.625 27.75 22.125C27.6771 23.625 27.5938 24.7292 27.5 25.4375L27.4844 25.4844L27.9219 24.8594C28.6094 23.8594 29.1927 22.9792 29.6719 22.2188C30.1615 21.4479 30.5677 20.6771 30.8906 19.9062ZM38.2656 21.1719L35.6875 18.1094C35.9479 16.4115 36.474 15.2656 37.2656 14.6719C37.6719 14.3698 38.1094 14.1406 38.5781 13.9844C39.0469 13.8177 39.5104 13.7344 39.9688 13.7344C40.5208 13.7344 41.0156 13.8542 41.4531 14.0938C41.8906 14.3229 42.224 14.6719 42.4531 15.1406H42.4688C42.5938 15.4115 42.8073 16.2969 43.1094 17.7969C43.4219 19.2969 43.7135 20.9427 43.9844 22.7344C44.2552 24.5156 44.4271 26.0156 44.5 27.2344L44.7031 27.25C45.0885 26.2708 45.4583 25.125 45.8125 23.8125C46.1667 22.5 46.4271 21.3802 46.5938 20.4531C46.5208 20.3906 46.2865 20.1927 45.8906 19.8594C45.5052 19.526 45.1562 19.1562 44.8438 18.75C44.5417 18.3438 44.2865 17.9062 44.0781 17.4375C44.3698 16.75 44.8177 16.0938 45.4219 15.4688C46.0365 14.8438 46.7135 14.3281 47.4531 13.9219C48.1927 13.5156 48.8958 13.2708 49.5625 13.1875C50.2812 13.7812 50.8594 14.6302 51.2969 15.7344C51.7344 16.8281 51.974 17.9271 52.0156 19.0312C51.8594 19.3438 51.6979 19.6875 51.5312 20.0625C50.8021 21.6042 50.0729 23.0833 49.3438 24.5C48.625 25.9167 47.8802 27.276 47.1094 28.5781C47.474 29.3177 47.75 30.2292 47.9375 31.3125C47.5417 31.6458 46.9635 31.8958 46.2031 32.0625C45.4531 32.2396 44.6406 32.3281 43.7656 32.3281C42.849 32.3281 41.9948 32.2344 41.2031 32.0469C40.4219 31.8594 39.8594 31.599 39.5156 31.2656C39.6302 30.2552 39.7448 29.4896 39.8594 28.9688C39.9844 28.4375 40.1406 27.974 40.3281 27.5781L38.2656 21.1719ZM59.6562 27.5625C59.9688 27.5 60.3542 27.3594 60.8125 27.1406C61.2812 26.9219 61.9323 26.599 62.7656 26.1719C63.4115 25.8281 64.0729 25.4896 64.75 25.1562L66.0781 27.3281C65.6198 27.9427 64.9219 28.6458 63.9844 29.4375C63.0573 30.2188 62.0573 30.8958 60.9844 31.4688C59.9219 32.0312 58.9583 32.3125 58.0938 32.3125C57.8229 32.3125 57.5573 32.2396 57.2969 32.0938C57.0365 31.9583 56.75 31.7292 56.4375 31.4062C56.1667 31.1354 55.9635 30.9427 55.8281 30.8281C55.6094 30.6302 55.401 30.4583 55.2031 30.3125C55.0156 30.1562 54.8958 30.0573 54.8438 30.0156C54.5208 29.724 54.2969 29.4583 54.1719 29.2188C54.0573 28.9688 54 28.7031 54 28.4219C54 28.2344 54.0156 28.026 54.0469 27.7969C54.0885 27.401 54.1094 27.0417 54.1094 26.7188C54.1094 25.2604 54.0052 23.6979 53.7969 22.0312C53.599 20.3646 53.3906 19.1667 53.1719 18.4375C53.0469 18.0104 52.9844 17.7292 52.9844 17.5938C52.9844 17.1771 53.2917 16.6771 53.9062 16.0938C54.5312 15.5104 55.1354 15.0365 55.7188 14.6719C56.2917 14.3177 56.974 13.9844 57.7656 13.6719C58.5573 13.349 59.2135 13.1875 59.7344 13.1875C60.099 13.2083 60.5052 13.3646 60.9531 13.6562C61.9531 14.3333 62.7344 14.8125 63.2969 15.0938C63.8698 15.3646 64.5677 15.6458 65.3906 15.9375L65.8281 16.0938C65.9531 16.1458 66.0417 16.1979 66.0938 16.25C66.1458 16.3021 66.1927 16.401 66.2344 16.5469C66.2865 16.6823 66.3385 16.9062 66.3906 17.2188C66.4531 17.5938 66.4844 17.9948 66.4844 18.4219C66.4844 19.2552 66.375 19.875 66.1562 20.2812C66.0625 20.4479 65.6146 20.9792 64.8125 21.875C64.0104 22.7604 63.0885 23.7396 62.0469 24.8125C61.0052 25.875 60.0573 26.7917 59.2031 27.5625H59.6562ZM62.3281 19.9062C61.7656 19.7812 60.7552 19.4844 59.2969 19.0156C59.2969 19.5885 59.2604 20.625 59.1875 22.125C59.1146 23.625 59.0312 24.7292 58.9375 25.4375L58.9219 25.4844L59.3594 24.8594C60.0469 23.8594 60.6302 22.9792 61.1094 22.2188C61.599 21.4479 62.0052 20.6771 62.3281 19.9062ZM68.7656 29.8438C68.6198 29.6771 68.5052 29.5052 68.4219 29.3281C68.349 29.1406 68.3125 28.9167 68.3125 28.6562C68.3125 28.5625 68.3333 28.3802 68.375 28.1094L69.4531 22.5312C69.1615 21.0208 68.875 19.2552 68.5938 17.2344C68.3229 15.2031 68.099 13.3802 67.9219 11.7656C67.7448 10.1406 67.6719 9.25 67.7031 9.09375C68.2135 8.44792 68.9375 7.90625 69.875 7.46875C70.8229 7.02083 71.7604 6.79688 72.6875 6.79688C73.6458 6.79688 74.4219 7.04167 75.0156 7.53125C74.9323 9.96875 74.776 12.6406 74.5469 15.5469C74.3281 18.4531 73.9844 22.3021 73.5156 27.0938L75.75 26.0469L77 28.0312C76.7917 28.6771 76.4635 29.3333 76.0156 30C75.5677 30.6562 75.0469 31.2083 74.4531 31.6562C73.8594 32.0938 73.2552 32.3125 72.6406 32.3125C71.9948 32.3125 71.3281 32.0677 70.6406 31.5781C69.9531 31.0885 69.3281 30.5104 68.7656 29.8438ZM92.6406 16.5781C92.7344 17.0365 92.7969 17.5208 92.8281 18.0312C92.8698 18.5312 92.8906 19.2344 92.8906 20.1406C92.8906 21.599 92.7604 23.2604 92.5 25.125C92.25 26.9792 91.9792 28.4375 91.6875 29.5C91.5104 29.7188 91.1667 29.9896 90.6562 30.3125C90.1458 30.6354 89.6354 30.9271 89.125 31.1875C88.4375 31.5312 87.8438 31.7917 87.3438 31.9688C86.8438 32.1458 86.3438 32.2604 85.8438 32.3125C85.1354 32.25 84.3021 32.0938 83.3438 31.8438C82.3854 31.5938 81.4896 31.2969 80.6562 30.9531C79.8333 30.599 79.2396 30.2396 78.875 29.875C78.5521 27.8125 78.3021 26.0312 78.125 24.5312C77.9583 23.0312 77.875 21.5729 77.875 20.1562C77.875 18.8542 77.9688 17.5625 78.1562 16.2812C78.4479 15.9167 79.0417 15.5104 79.9375 15.0625C80.8333 14.6042 81.7865 14.1979 82.7969 13.8438C83.8073 13.4792 84.5833 13.2604 85.125 13.1875C85.9896 13.2708 86.9219 13.4792 87.9219 13.8125C88.9219 14.1458 89.8438 14.5573 90.6875 15.0469C91.5417 15.5365 92.1927 16.0469 92.6406 16.5781ZM83.5625 18.9688C83.4375 20.2188 83.375 21.474 83.375 22.7344C83.375 24.401 83.4479 25.9688 83.5938 27.4375C84.4479 28 85.3125 28.375 86.1875 28.5625L87.0469 27.9688C87.1302 27.1042 87.1719 25.9479 87.1719 24.5C87.1719 22.8646 87.0833 21.1979 86.9062 19.5L84.5 18.5156L83.5625 18.9688ZM103.516 34.0625L104.109 36.6094C103.87 36.974 103.521 37.3281 103.062 37.6719C102.604 38.0156 102.109 38.2969 101.578 38.5156C101.047 38.7344 100.557 38.8438 100.109 38.8438C99.7344 38.8438 99.3333 38.75 98.9062 38.5625C98.4792 38.3854 98.0729 38.1615 97.6875 37.8906C97.3646 37.6615 97.1146 37.4635 96.9375 37.2969C96.7604 37.1302 96.6146 36.9062 96.5 36.625C96.3854 36.3542 96.3177 35.9948 96.2969 35.5469L95.8906 24C95.526 22.5417 95.1667 20.8958 94.8125 19.0625C94.4583 17.2292 94.2708 16.0677 94.25 15.5781V15.4219C94.6042 14.8281 95.2188 14.3594 96.0938 14.0156C96.9792 13.6719 97.875 13.5 98.7812 13.5C99.8333 13.5 100.594 13.7135 101.062 14.1406L99.9219 23.8125L99.9688 23.8281L103.578 13.7969C103.661 13.776 103.792 13.7396 103.969 13.6875C104.146 13.6354 104.339 13.5938 104.547 13.5625C104.766 13.5208 105.01 13.5 105.281 13.5C105.719 13.5 106.255 13.5833 106.891 13.75C107.536 13.9167 108.214 14.1719 108.922 14.5156C109.63 14.8594 110.276 15.2812 110.859 15.7812C110.807 18.2917 110.557 20.8385 110.109 23.4219C109.661 26.0052 108.948 28.8906 107.969 32.0781C107.427 32.2344 106.917 32.3125 106.438 32.3125C105.427 32.3125 104.417 32.1823 103.406 31.9219C102.396 31.6615 101.609 31.3802 101.047 31.0781C100.932 32.0156 100.755 33.0104 100.516 34.0625H103.516ZM104.344 19.7344C103.771 20.901 103.115 22.2656 102.375 23.8281C101.635 25.3802 101.146 26.4375 100.906 27C101.312 27.3438 101.875 27.6615 102.594 27.9531C103.312 28.2448 103.875 28.401 104.281 28.4219C104.396 27.3177 104.5 25.8906 104.594 24.1406C104.688 22.3802 104.745 20.9531 104.766 19.8594L104.344 19.7344ZM118.812 27.5625C119.125 27.5 119.51 27.3594 119.969 27.1406C120.438 26.9219 121.089 26.599 121.922 26.1719C122.568 25.8281 123.229 25.4896 123.906 25.1562L125.234 27.3281C124.776 27.9427 124.078 28.6458 123.141 29.4375C122.214 30.2188 121.214 30.8958 120.141 31.4688C119.078 32.0312 118.115 32.3125 117.25 32.3125C116.979 32.3125 116.714 32.2396 116.453 32.0938C116.193 31.9583 115.906 31.7292 115.594 31.4062C115.323 31.1354 115.12 30.9427 114.984 30.8281C114.766 30.6302 114.557 30.4583 114.359 30.3125C114.172 30.1562 114.052 30.0573 114 30.0156C113.677 29.724 113.453 29.4583 113.328 29.2188C113.214 28.9688 113.156 28.7031 113.156 28.4219C113.156 28.2344 113.172 28.026 113.203 27.7969C113.245 27.401 113.266 27.0417 113.266 26.7188C113.266 25.2604 113.161 23.6979 112.953 22.0312C112.755 20.3646 112.547 19.1667 112.328 18.4375C112.203 18.0104 112.141 17.7292 112.141 17.5938C112.141 17.1771 112.448 16.6771 113.062 16.0938C113.688 15.5104 114.292 15.0365 114.875 14.6719C115.448 14.3177 116.13 13.9844 116.922 13.6719C117.714 13.349 118.37 13.1875 118.891 13.1875C119.255 13.2083 119.661 13.3646 120.109 13.6562C121.109 14.3333 121.891 14.8125 122.453 15.0938C123.026 15.3646 123.724 15.6458 124.547 15.9375L124.984 16.0938C125.109 16.1458 125.198 16.1979 125.25 16.25C125.302 16.3021 125.349 16.401 125.391 16.5469C125.443 16.6823 125.495 16.9062 125.547 17.2188C125.609 17.5938 125.641 17.9948 125.641 18.4219C125.641 19.2552 125.531 19.875 125.312 20.2812C125.219 20.4479 124.771 20.9792 123.969 21.875C123.167 22.7604 122.245 23.7396 121.203 24.8125C120.161 25.875 119.214 26.7917 118.359 27.5625H118.812ZM121.484 19.9062C120.922 19.7812 119.911 19.4844 118.453 19.0156C118.453 19.5885 118.417 20.625 118.344 22.125C118.271 23.625 118.188 24.7292 118.094 25.4375L118.078 25.4844L118.516 24.8594C119.203 23.8594 119.786 22.9792 120.266 22.2188C120.755 21.4479 121.161 20.6771 121.484 19.9062ZM132.719 23.4844C132.771 23.2344 132.839 22.8594 132.922 22.3594C133.016 21.849 133.089 21.4427 133.141 21.1406C133.422 19.401 133.688 17.9271 133.938 16.7188C134.198 15.5 134.495 14.5208 134.828 13.7812C135.484 13.6354 136.151 13.5625 136.828 13.5625C137.776 13.5625 138.651 13.6927 139.453 13.9531C140.266 14.2135 140.927 14.5208 141.438 14.875C141.531 15.5312 141.578 16.2188 141.578 16.9375C141.578 18.1146 141.479 19.3229 141.281 20.5625C141.094 21.7917 140.875 22.9115 140.625 23.9219C139.844 24.3594 139.021 24.5781 138.156 24.5781C137.635 24.5781 137.052 24.5 136.406 24.3438C136.417 23.9792 136.422 23.1146 136.422 21.75C136.422 20.75 136.417 20.0625 136.406 19.6875L135.641 19.5625C135.255 20.6979 134.682 22.7344 133.922 25.6719L133.375 27.7188L136.234 27.3438L137.125 29.4375C136.51 30.4062 135.766 31.1302 134.891 31.6094C134.016 32.0781 133.068 32.3125 132.047 32.3125C131.464 32.3125 130.948 32.2604 130.5 32.1562C130.052 32.0521 129.672 31.8542 129.359 31.5625C129.182 31.4062 128.974 31.1667 128.734 30.8438C128.505 30.5208 128.297 30.1615 128.109 29.7656C127.932 29.3594 127.844 28.974 127.844 28.6094C127.844 28.3802 127.88 28.1719 127.953 27.9844L129.203 24.8906L126.406 15.3906C126.812 14.8073 127.375 14.3594 128.094 14.0469C128.812 13.724 129.578 13.5625 130.391 13.5625C131.245 13.5625 132 13.724 132.656 14.0469L132.547 23.4531L132.719 23.4844ZM13.396 49.7695C13.3765 49.8037 13.2983 49.9429 13.1616 50.187C13.0298 50.4312 12.8198 50.6533 12.5317 50.8535C12.2437 51.0488 11.9116 51.1465 11.5356 51.1465C11.2427 51.1465 10.9692 51.0928 10.7153 50.9854C10.4663 50.8779 10.2588 50.7168 10.0928 50.502C9.92676 50.2871 9.82422 50.0283 9.78516 49.7256C9.73633 49.3594 9.68506 48.5781 9.63135 47.3818C9.57764 46.376 9.55078 45.2358 9.55078 43.9614C9.55078 43.3364 9.55811 42.8237 9.57275 42.4233L9.43359 42.4014L8.0127 48.6343C8.13965 48.9028 8.2373 49.1787 8.30566 49.4619C8.37402 49.7451 8.44238 50.0942 8.51074 50.5093L8.55469 50.7437C8.36914 50.8755 8.15186 50.9731 7.90283 51.0366C7.65381 51.105 7.3877 51.1392 7.10449 51.1392C6.73828 51.1392 6.37939 51.0854 6.02783 50.978C5.68115 50.8706 5.39795 50.7266 5.17822 50.5459C5.17822 50.2969 5.2002 50.0015 5.24414 49.6597C5.29297 49.3179 5.37109 49.0664 5.47852 48.9053L3.36182 42.394L3.22266 42.4453C3.28125 42.7188 3.37158 43.2925 3.49365 44.1665C3.61572 45.0405 3.72559 45.9512 3.82324 46.8984C3.92578 47.8408 3.98193 48.6025 3.9917 49.1836C4.00146 49.7695 3.87207 50.2432 3.60352 50.6045C3.33496 50.9658 2.90039 51.1465 2.2998 51.1465H2.25586H2.16064C1.74072 51.1367 1.35498 51.0269 1.00342 50.8169C0.651855 50.6021 0.407715 50.3164 0.270996 49.96L0.600586 48.7661L1.41357 48.832V48.7661L1.91895 42.394L0.681152 42.0205C0.720215 41.5029 0.839844 41.0391 1.04004 40.6289C1.24512 40.2188 1.58203 39.894 2.05078 39.6548C2.30957 39.689 2.68555 39.7793 3.17871 39.9258C3.67188 40.0674 4.16992 40.2456 4.67285 40.4604C5.18066 40.6753 5.59082 40.9023 5.90332 41.1416L7.16309 46.9277L7.22168 46.9204L7.41211 45.3091C7.58789 44.2739 7.77832 43.2412 7.9834 42.2109C7.66113 42.0742 7.42188 41.9595 7.26562 41.8667C7.30957 41.3931 7.46582 40.9536 7.73438 40.5483C8.00293 40.1382 8.37158 39.8403 8.84033 39.6548C9.09912 39.689 9.47998 39.8135 9.98291 40.0283C10.4858 40.2383 10.9741 40.48 11.4478 40.7534C11.9263 41.0269 12.2656 41.271 12.4658 41.4858C12.4121 42.7847 12.3389 44.0542 12.2461 45.2944C12.1533 46.5298 12.0044 47.6821 11.7993 48.7515L13.1616 48.5537L13.396 49.7695ZM22.4194 48.9639C22.1362 49.6133 21.814 50.1406 21.4526 50.5459C21.0962 50.9512 20.7178 51.1538 20.3174 51.1538C20.0928 51.1538 19.8511 51.0854 19.5923 50.9487C19.3335 50.812 19.104 50.6362 18.9038 50.4214C18.8843 50.4019 18.8379 50.353 18.7646 50.2749C18.6914 50.1968 18.6328 50.1016 18.5889 49.9893C18.5498 49.877 18.5303 49.7451 18.5303 49.5938C18.5303 49.5059 18.5327 49.4375 18.5376 49.3887C18.606 48.71 18.689 48.0532 18.7866 47.4185L18.6768 47.3672C17.9102 49.3301 17.2754 50.5312 16.7725 50.9707C16.6211 51.0879 16.4746 51.1465 16.333 51.1465C16.2158 51.1465 16.0986 51.1147 15.9814 51.0513C15.8643 50.9927 15.7202 50.9023 15.5493 50.7803C15.4858 50.7363 15.376 50.6704 15.2197 50.5825C15.0049 50.4604 14.8438 50.353 14.7363 50.2603C14.6338 50.1675 14.5801 50.0576 14.5752 49.9307C14.5752 49.7939 14.5776 49.6719 14.5825 49.5645C14.5923 49.252 14.5972 48.998 14.5972 48.8027C14.5972 48.1631 14.5459 47.4185 14.4434 46.5688C14.3457 45.7144 14.2114 45.0088 14.0405 44.4521C13.9819 44.252 13.9526 44.1177 13.9526 44.0493C13.9526 43.9907 13.9648 43.9321 13.9893 43.8735C14.0186 43.8149 14.0674 43.7393 14.1357 43.6465C14.4043 43.2998 14.7192 43.0215 15.0806 42.8115C15.4419 42.5967 15.7715 42.4453 16.0693 42.3574C16.3672 42.2695 16.6064 42.2134 16.7871 42.189C17.1436 42.4331 17.4658 42.7407 17.7539 43.1118C18.042 43.478 18.3203 43.8931 18.5889 44.3569C18.584 44.0591 18.5693 43.6221 18.5449 43.0459L18.5303 42.5552C18.6133 42.5015 18.772 42.4551 19.0063 42.416C19.2407 42.3721 19.4922 42.3501 19.7607 42.3501C20.2051 42.3501 20.5884 42.4209 20.9106 42.5625C21.2378 42.7041 21.5308 42.9287 21.7896 43.2363C21.8091 43.4023 21.7603 43.8345 21.6431 44.5327C21.5259 45.2261 21.3672 45.9707 21.167 46.7666C20.9668 47.5625 20.7544 48.2241 20.5298 48.7515L21.7969 48.0776L22.4194 48.9639ZM16.9995 48.5244C17.2339 48.29 17.5073 47.8994 17.8198 47.3525C18.1372 46.8057 18.3911 46.3296 18.5815 45.9243C18.5913 45.8071 18.5962 45.7412 18.5962 45.7266V45.3384C18.3228 45.2749 18.0078 45.2065 17.6514 45.1333L17.0288 45.0015L17.0361 45.7852V46.0269C17.0361 46.769 16.9507 47.5674 16.7798 48.4219L16.9995 48.5244ZM27.2754 45.2798C26.7041 46.5396 26.2134 47.5674 25.8032 48.3633C26.0522 49.1006 26.2573 49.9209 26.4185 50.8242C26.1157 51.0391 25.6592 51.1465 25.0488 51.1465C24.7119 51.1465 24.3652 51.0903 24.0088 50.978C23.6523 50.8657 23.3862 50.7119 23.2104 50.5166C23.3081 49.9551 23.3911 49.5254 23.4595 49.2275C23.5327 48.9248 23.6206 48.6172 23.7231 48.3047C23.6108 48.041 23.4668 47.543 23.291 46.8105C23.1152 46.0781 22.959 45.3506 22.8223 44.6279C22.6855 43.9053 22.6172 43.4561 22.6172 43.2803L22.6245 43.229C22.7856 42.9556 23.0811 42.7432 23.5107 42.5918C23.9453 42.4355 24.3823 42.3574 24.8218 42.3574C25.3296 42.3574 25.6836 42.4478 25.8838 42.6284L25.3491 47.2134L25.4663 47.2354C25.5444 46.9766 25.6274 46.6812 25.7153 46.3491C25.8081 46.0171 25.874 45.7754 25.9131 45.624C26.0938 44.9307 26.2549 44.3472 26.3965 43.8735C26.5381 43.395 26.7065 42.9263 26.9019 42.4673C27.1313 42.394 27.4561 42.3574 27.876 42.3574C28.3887 42.3574 28.8672 42.4404 29.3115 42.6064C29.7559 42.7676 30.1343 43.0312 30.4468 43.3975C30.4468 43.8125 30.3931 44.3374 30.2856 44.9722C30.1831 45.6021 30.0391 46.2539 29.8535 46.9277C29.6729 47.5967 29.4751 48.1948 29.2603 48.7222L30.5054 48.0703L31.1572 48.9565C31.0449 49.2886 30.8813 49.6255 30.6665 49.9673C30.4517 50.3042 30.21 50.585 29.9414 50.8096C29.6729 51.0342 29.4067 51.1465 29.1431 51.1465C28.9185 51.1465 28.6743 51.083 28.4106 50.9561C28.1519 50.8291 27.9321 50.668 27.7515 50.4727C27.5757 50.2871 27.4536 50.1162 27.3853 49.96C27.3218 49.8037 27.2949 49.6108 27.3047 49.3813L27.4878 45.3457L27.2754 45.2798ZM39.9536 48.9639C39.6704 49.6133 39.3481 50.1406 38.9868 50.5459C38.6304 50.9512 38.252 51.1538 37.8516 51.1538C37.627 51.1538 37.3853 51.0854 37.1265 50.9487C36.8677 50.812 36.6382 50.6362 36.438 50.4214C36.4185 50.4019 36.3721 50.353 36.2988 50.2749C36.2256 50.1968 36.167 50.1016 36.123 49.9893C36.084 49.877 36.0645 49.7451 36.0645 49.5938C36.0645 49.5059 36.0669 49.4375 36.0718 49.3887C36.1401 48.71 36.2231 48.0532 36.3208 47.4185L36.2109 47.3672C35.4443 49.3301 34.8096 50.5312 34.3066 50.9707C34.1553 51.0879 34.0088 51.1465 33.8672 51.1465C33.75 51.1465 33.6328 51.1147 33.5156 51.0513C33.3984 50.9927 33.2544 50.9023 33.0835 50.7803C33.02 50.7363 32.9102 50.6704 32.7539 50.5825C32.5391 50.4604 32.3779 50.353 32.2705 50.2603C32.168 50.1675 32.1143 50.0576 32.1094 49.9307C32.1094 49.7939 32.1118 49.6719 32.1167 49.5645C32.1265 49.252 32.1313 48.998 32.1313 48.8027C32.1313 48.1631 32.0801 47.4185 31.9775 46.5688C31.8799 45.7144 31.7456 45.0088 31.5747 44.4521C31.5161 44.252 31.4868 44.1177 31.4868 44.0493C31.4868 43.9907 31.499 43.9321 31.5234 43.8735C31.5527 43.8149 31.6016 43.7393 31.6699 43.6465C31.9385 43.2998 32.2534 43.0215 32.6147 42.8115C32.9761 42.5967 33.3057 42.4453 33.6035 42.3574C33.9014 42.2695 34.1406 42.2134 34.3213 42.189C34.6777 42.4331 35 42.7407 35.2881 43.1118C35.5762 43.478 35.8545 43.8931 36.123 44.3569C36.1182 44.0591 36.1035 43.6221 36.0791 43.0459L36.0645 42.5552C36.1475 42.5015 36.3062 42.4551 36.5405 42.416C36.7749 42.3721 37.0264 42.3501 37.2949 42.3501C37.7393 42.3501 38.1226 42.4209 38.4448 42.5625C38.772 42.7041 39.0649 42.9287 39.3237 43.2363C39.3433 43.4023 39.2944 43.8345 39.1772 44.5327C39.0601 45.2261 38.9014 45.9707 38.7012 46.7666C38.501 47.5625 38.2886 48.2241 38.064 48.7515L39.3311 48.0776L39.9536 48.9639ZM34.5337 48.5244C34.7681 48.29 35.0415 47.8994 35.354 47.3525C35.6714 46.8057 35.9253 46.3296 36.1157 45.9243C36.1255 45.8071 36.1304 45.7412 36.1304 45.7266V45.3384C35.8569 45.2749 35.542 45.2065 35.1855 45.1333L34.563 45.0015L34.5703 45.7852V46.0269C34.5703 46.769 34.4849 47.5674 34.314 48.4219L34.5337 48.5244ZM48.0762 43.2363L48.0469 43.3828C47.9932 43.6318 47.937 43.8564 47.8784 44.0566C47.8247 44.2568 47.7319 44.5107 47.6001 44.8184C47.4683 45.126 47.2827 45.4873 47.0435 45.9023L48.0103 51.4541C47.9077 51.8496 47.7222 52.228 47.4536 52.5894C47.1851 52.9556 46.8604 53.2754 46.4795 53.5488C46.0986 53.8271 45.6934 54.0396 45.2637 54.186C45.1611 54.2007 45.0562 54.208 44.9487 54.208C44.6069 54.208 44.2432 54.1421 43.8574 54.0103C43.4717 53.8784 43.125 53.7197 42.8174 53.5342C42.5146 53.3486 42.3071 53.1826 42.1948 53.0361C42.1899 52.9727 42.1875 52.8872 42.1875 52.7798C42.1875 52.604 42.1997 52.4526 42.2241 52.3257C42.2534 52.1987 42.3047 52.0156 42.3779 51.7764C42.7441 51.8594 43.2349 51.9375 43.8501 52.0107C44.4702 52.0889 44.9463 52.1279 45.2783 52.1279C45.2881 51.835 45.293 51.6006 45.293 51.4248C45.293 50.9658 45.2734 50.2432 45.2344 49.2568C45.1904 48.3047 45.1709 47.5967 45.1758 47.1328L45.0806 47.0669C44.7778 47.936 44.436 48.7319 44.0552 49.4546C43.6792 50.1724 43.3228 50.6753 42.9858 50.9634C42.8345 51.0806 42.688 51.1392 42.5464 51.1392C42.4292 51.1392 42.312 51.1074 42.1948 51.0439C42.0776 50.9854 41.936 50.895 41.77 50.7729C41.687 50.7144 41.5796 50.6484 41.4478 50.5752C41.2329 50.4531 41.0718 50.3457 40.9644 50.2529C40.8618 50.1602 40.8105 50.0503 40.8105 49.9233L40.8252 49.4766C40.8447 49.1152 40.8545 48.8418 40.8545 48.6562C40.8545 47.9971 40.813 47.2646 40.73 46.459C40.647 45.6484 40.5273 44.9771 40.3711 44.4448C40.3174 44.2642 40.2905 44.1299 40.2905 44.042C40.2905 43.9834 40.3052 43.9248 40.3345 43.8662C40.3638 43.8076 40.4126 43.7319 40.481 43.6392C40.7544 43.2925 41.0718 43.0142 41.4331 42.8042C41.7993 42.5894 42.1313 42.438 42.4292 42.3501C42.7319 42.2622 42.9736 42.2061 43.1543 42.1816C43.4961 42.4209 43.7915 42.7114 44.0405 43.0532C44.2896 43.3901 44.5679 43.8223 44.8755 44.3496C44.8706 44.0518 44.856 43.6147 44.8315 43.0386L44.8169 42.5479C44.8999 42.4941 45.0586 42.4478 45.293 42.4087C45.5273 42.3647 45.7788 42.3428 46.0474 42.3428C46.4917 42.3428 46.875 42.4136 47.1973 42.5552C47.5244 42.6968 47.8174 42.9214 48.0762 43.229L48.0688 43.2363H48.0762ZM43.2568 48.5171C43.4961 48.2827 43.7793 47.8872 44.1064 47.3306C44.4336 46.7739 44.6875 46.3027 44.8682 45.917C44.8779 45.7998 44.8828 45.7339 44.8828 45.7192V45.3311C44.6729 45.2773 44.3604 45.209 43.9453 45.126L43.3447 44.9941V45.7778C43.3447 46.5835 43.2422 47.4624 43.0371 48.4146L43.2568 48.5171ZM51.7969 48.9199C51.9434 48.8906 52.124 48.8247 52.3389 48.7222C52.5586 48.6196 52.8638 48.4683 53.2544 48.2681C53.5571 48.1069 53.8672 47.9482 54.1846 47.792L54.8071 48.8101C54.5923 49.0981 54.2651 49.4277 53.8257 49.7988C53.3911 50.165 52.9224 50.4824 52.4194 50.751C51.9214 51.0146 51.4697 51.1465 51.0645 51.1465C50.9375 51.1465 50.813 51.1123 50.6909 51.0439C50.5688 50.9805 50.4346 50.873 50.2881 50.7217C50.1611 50.5947 50.0659 50.5044 50.0024 50.4507C49.8999 50.3579 49.8022 50.2773 49.7095 50.209C49.6216 50.1357 49.5654 50.0894 49.541 50.0698C49.3896 49.9331 49.2847 49.8086 49.2261 49.6963C49.1724 49.5791 49.1455 49.4546 49.1455 49.3228C49.1455 49.2349 49.1528 49.1372 49.1675 49.0298C49.187 48.8442 49.1968 48.6758 49.1968 48.5244C49.1968 47.8408 49.1479 47.1084 49.0503 46.3271C48.9575 45.5459 48.8599 44.9844 48.7573 44.6426C48.6987 44.4424 48.6694 44.3105 48.6694 44.2471C48.6694 44.0518 48.8135 43.8174 49.1016 43.5439C49.3945 43.2705 49.6777 43.0483 49.9512 42.8774C50.2197 42.7114 50.5396 42.5552 50.9106 42.4087C51.2817 42.2573 51.5894 42.1816 51.8335 42.1816C52.0044 42.1914 52.1948 42.2646 52.4048 42.4014C52.8735 42.7188 53.2397 42.9434 53.5034 43.0752C53.772 43.2021 54.0991 43.334 54.4849 43.4707L54.6899 43.5439C54.7485 43.5684 54.79 43.5928 54.8145 43.6172C54.8389 43.6416 54.8608 43.688 54.8804 43.7563C54.9048 43.8198 54.9292 43.9248 54.9536 44.0713C54.9829 44.2471 54.9976 44.4351 54.9976 44.6353C54.9976 45.0259 54.9463 45.3164 54.8438 45.5068C54.7998 45.585 54.5898 45.834 54.2139 46.2539C53.8379 46.6689 53.4058 47.1279 52.9175 47.6309C52.4292 48.1289 51.9849 48.5586 51.5845 48.9199H51.7969ZM53.0493 45.3311C52.7856 45.2725 52.312 45.1333 51.6284 44.9136C51.6284 45.1821 51.6113 45.668 51.5771 46.3711C51.543 47.0742 51.5039 47.5918 51.46 47.9238L51.4526 47.9458L51.6577 47.6528C51.98 47.1841 52.2534 46.7715 52.478 46.415C52.7075 46.0537 52.8979 45.6924 53.0493 45.3311ZM58.3154 47.0083C58.3398 46.8911 58.3716 46.7153 58.4106 46.481C58.4546 46.2417 58.4888 46.0513 58.5132 45.9097C58.645 45.0942 58.7695 44.4033 58.8867 43.8369C59.0088 43.2656 59.1479 42.8066 59.3042 42.46C59.6118 42.3916 59.9243 42.3574 60.2417 42.3574C60.686 42.3574 61.0962 42.4185 61.4722 42.5405C61.853 42.6626 62.1631 42.8066 62.4023 42.9727C62.4463 43.2803 62.4683 43.6025 62.4683 43.9395C62.4683 44.4912 62.4219 45.0576 62.3291 45.6387C62.2412 46.2148 62.1387 46.7397 62.0215 47.2134C61.6553 47.4185 61.2695 47.521 60.8643 47.521C60.6201 47.521 60.3467 47.4844 60.0439 47.4111C60.0488 47.2402 60.0513 46.835 60.0513 46.1953C60.0513 45.7266 60.0488 45.4043 60.0439 45.2285L59.6851 45.1699C59.5044 45.7021 59.2358 46.6567 58.8794 48.0337L58.623 48.9932L59.9634 48.8174L60.3809 49.7988C60.0928 50.2529 59.7437 50.5923 59.3335 50.8169C58.9233 51.0366 58.479 51.1465 58.0005 51.1465C57.7271 51.1465 57.4854 51.1221 57.2754 51.0732C57.0654 51.0244 56.8872 50.9316 56.7407 50.7949C56.6577 50.7217 56.5601 50.6094 56.4478 50.458C56.3403 50.3066 56.2427 50.1382 56.1548 49.9526C56.0718 49.7622 56.0303 49.5815 56.0303 49.4106C56.0303 49.3032 56.0474 49.2056 56.0815 49.1177L56.6675 47.6675L55.3564 43.2144C55.5469 42.9409 55.8105 42.731 56.1475 42.5845C56.4844 42.4331 56.8433 42.3574 57.2241 42.3574C57.6245 42.3574 57.9785 42.4331 58.2861 42.5845L58.2349 46.9937L58.3154 47.0083Z" fill="white"/>
</svg>
